<?xml version="1.0" encoding="utf-8"?>
<!-- Generator: Adobe Illustrator 25.0.1, SVG Export Plug-In . SVG Version: 6.00 Build 0)  -->
<svg version="1.1" id="Ebene_1" xmlns="http://www.w3.org/2000/svg" xmlns:xlink="http://www.w3.org/1999/xlink" x="0px" y="0px"
	 viewBox="0 0 96 96" style="enable-background:new 0 0 96 96;" xml:space="preserve">
<style type="text/css">
	.st0{fill:#FF8000;}
</style>
<g transform="translate(-30.72,-30.72) scale(1.24,1.24)">
	<g>
		<g transform="scale(5.33333,5.33333)">
			<path class="st0" d="M18.8,12.3c-0.6,0.1-0.9,0.2-1.1,0.2c-0.1,0-0.2,0.1-0.2,0.3c0,2.1-0.2,4.1-0.5,5.9c0,0.3-0.3,0.5-0.6,0.5
				h-0.7c-0.3,0-0.6-0.3-0.6-0.6c0.1-3,0.1-6.8,0-8.9c0-0.3-0.3-0.4-0.5-0.2c-1.2,1.3-1.7,4.5-1.8,5.7c0,0.3,0.2,0.6,0.5,0.6
				l0.7,0.1c0.1,0,0.1,0.1,0.1,0.3L14,18.7c0,0.3-0.3,0.5-0.6,0.5H11c0-0.4,0-0.7,0-1.1c0-0.3,0-1.5,0-1.8c0.4-0.2,0.8-0.5,0.9-1.5
				c0,0,0-0.9,0-1c0-1.9,0.1-3.7,0.1-3.7c0-0.2-0.1-0.4-0.3-0.4c-0.2,0-0.4,0.1-0.4,0.3c0,0-0.1,1.8-0.1,3.8c0,0.1-0.1,0.2-0.3,0.2
				h0c-0.2,0-0.3-0.1-0.3-0.3c0-1,0-2.4,0.1-3.8c0-0.2-0.1-0.3-0.3-0.4c-0.2,0-0.3,0.1-0.4,0.3c-0.1,1.4-0.1,2.8-0.1,3.8
				c0,0.2-0.1,0.3-0.3,0.3c-0.2,0-0.3-0.1-0.3-0.3c0-0.8,0-2.2,0.1-3.8c0-0.2-0.1-0.3-0.3-0.4c-0.2,0-0.3,0.1-0.4,0.3
				c-0.2,2.7-0.2,4-0.1,4.8c0,0.6,0.4,1.3,1,1.5c0,0.3,0,1.4,0,1.7c0,0.3,0,0.7,0,1.1H7.7c-0.3,0-0.5-0.2-0.6-0.5
				c-0.4-1.9-0.5-3.6-0.5-5.6c0-0.1-0.1-0.3-0.2-0.3l-1.5-0.2c-0.2,0-0.3-0.2-0.2-0.4c0.6-1.4,4.1-6.5,6.9-7.4
				c0.2-0.1,0.4-0.1,0.5,0c0.9,0.3,1.8,0.9,2.7,1.7c0.2,0.2,0.5,0.5,0.5,0.3V6.6c0-0.2,0.2-0.3,0.3-0.3l0.9,0.2
				c0.1,0,0.2,0.1,0.2,0.2C17,7,17.3,7.6,17.4,9c0,0.1,0,0.1,0.1,0.2c0.7,0.9,1.2,2,1.6,2.8C19.1,12.1,19,12.3,18.8,12.3z"/>
		</g>
	</g>
</g>
</svg>
