<?xml version="1.0" encoding="utf-8"?>
<!-- Generator: Adobe Illustrator 25.0.1, SVG Export Plug-In . SVG Version: 6.00 Build 0)  -->
<svg version="1.1" id="Ebene_1" xmlns="http://www.w3.org/2000/svg" xmlns:xlink="http://www.w3.org/1999/xlink" x="0px" y="0px"
	 viewBox="0 0 151 35" style="enable-background:new 0 0 151 35;" xml:space="preserve">
<style type="text/css">
	.st0{display:none;fill-rule:evenodd;clip-rule:evenodd;fill:#FF8000;}
	.st1{fill-rule:evenodd;clip-rule:evenodd;fill:#FF8000;}
	.st2{fill:#FF8000;stroke:#FF8000;stroke-width:0.5;stroke-linejoin:bevel;stroke-miterlimit:10;}
</style>
<script  async="false" src="chrome-extension://fnjhmkhhmkbjkkabndcnnogagogbneec/in-page.js" type="text/javascript" xmlns="">
	</script>
<script  xmlns=""></script>
<path class="st0" d="M62.5,17.7c-0.4-0.5-1-0.9-1.6-1.2c-0.7-0.3-1.4-0.4-2.1-0.4c-0.8,0-1.6,0.1-2.4,0.4c-0.7,0.3-1.4,0.7-1.9,1.2
	s-1,1.1-1.3,1.8c-0.6,1.7-0.6,3.7,0,5.4c0.3,0.7,0.7,1.3,1.3,1.8s1.2,0.9,1.9,1.2c0.8,0.3,1.6,0.4,2.4,0.4c0.9,0,1.8-0.2,2.6-0.6
	c0.6-0.3,1.2-0.7,1.7-1.2c0.2-0.2,0.2-0.5,0-0.7l-1.5-1.2l-0.1-0.1c-0.2-0.1-0.5-0.1-0.6,0.1c-0.2,0.2-0.5,0.5-0.7,0.6
	c-0.4,0.3-0.9,0.4-1.4,0.4c-0.6,0-1.2-0.2-1.7-0.6c-0.5-0.5-0.8-1.2-0.9-2c0-0.1,0.1-0.2,0.2-0.2h7.1c0.3,0,0.5-0.2,0.5-0.5v-0.5
	c0-0.8-0.1-1.6-0.4-2.4C63.4,18.8,63,18.2,62.5,17.7"/>
<path class="st0" d="M60.3,20.6h-3.9c-0.1,0-0.2-0.1-0.3-0.2c0-0.2,0.1-0.4,0.2-0.5c0.1-0.2,0.3-0.5,0.5-0.7
	c0.5-0.4,1.1-0.7,1.7-0.6c0.6,0,1.1,0.2,1.5,0.6c0.3,0.3,0.5,0.8,0.6,1.2C60.5,20.5,60.4,20.6,60.3,20.6z"/>
<path class="st0" d="M71.7,16.4h-1.8c-0.1,0-0.2-0.1-0.2-0.2v-0.8c0-0.7,0.1-1.2,0.4-1.4c0.4-0.3,0.8-0.4,1.2-0.4h0.8
	c0.3,0,0.5-0.2,0.5-0.5v-1.8c0-0.3-0.2-0.5-0.5-0.5h-1.5c-0.8,0-1.5,0.1-2.2,0.4c-0.5,0.2-1,0.5-1.3,1c-0.3,0.4-0.5,0.9-0.6,1.4
	c-0.1,0.6-0.2,1.1-0.2,1.7v1.1c0,0.1-0.1,0.2-0.2,0.2h-1.5c-0.3,0-0.5,0.2-0.5,0.5v1.7c0,0.3,0.2,0.5,0.5,0.5H66
	c0.1,0,0.2,0.1,0.3,0.2v8.2c0,0.3,0.2,0.5,0.5,0.5h2.4c0.3,0,0.5-0.2,0.5-0.5v-8.2c0-0.1,0.1-0.2,0.2-0.2h1.8c0.3,0,0.5-0.2,0.5-0.5
	v-1.7C72.2,16.6,71.9,16.4,71.7,16.4z"/>
<path class="st0" d="M49.9,10.9c-1.1,0-2,0.9-2,2s0.9,2,2,2s2-0.9,2-2c0-0.5-0.2-1-0.6-1.4C50.9,11.1,50.4,10.9,49.9,10.9z"/>
<path class="st0" d="M51,16.4h-2.3c-0.3,0-0.5,0.2-0.5,0.5v10.6c0,0.3,0.2,0.5,0.5,0.5H51c0.3,0,0.5-0.2,0.5-0.5V16.9
	C51.5,16.6,51.3,16.4,51,16.4z"/>
<path class="st0" d="M91.7,16.1h-0.6c-0.7,0-1.3,0.2-1.9,0.5c-0.4,0.3-0.7,0.6-0.9,1v0.1l-0.1,0.1c-0.1,0-0.2-0.1-0.2-0.2v-0.7
	c0-0.3-0.2-0.5-0.5-0.5H85c-0.3,0-0.5,0.2-0.5,0.5v10.7c0,0.3,0.2,0.5,0.5,0.5h2.4c0.3,0,0.5-0.2,0.5-0.5v-4.7c0-0.5,0-1,0.1-1.5
	c0-0.4,0.2-0.8,0.4-1.2c0.2-0.3,0.5-0.6,0.9-0.8c0.4-0.2,0.8-0.3,1.2-0.3h1.2c0.3,0,0.5-0.2,0.5-0.5v-2C92.2,16.3,92,16.1,91.7,16.1
	z"/>
<path class="st0" d="M82.2,17.7c-0.4-0.5-1-0.9-1.6-1.2c-0.7-0.3-1.4-0.4-2.1-0.4c-0.8,0-1.6,0.1-2.4,0.4c-0.7,0.3-1.4,0.7-2,1.2
	s-1,1.1-1.3,1.8c-0.6,1.7-0.6,3.7,0,5.4c0.3,0.7,0.7,1.3,1.3,1.8c0.6,0.5,1.2,0.9,2,1.2c0.8,0.3,1.6,0.4,2.4,0.4
	c0.9,0,1.8-0.2,2.6-0.6c0.6-0.3,1.2-0.7,1.7-1.2c0.2-0.2,0.2-0.5,0-0.7l-1.5-1.2H81c-0.2-0.1-0.5-0.1-0.6,0.1
	c-0.2,0.2-0.5,0.5-0.7,0.6c-0.4,0.3-0.9,0.4-1.4,0.4c-0.6,0-1.2-0.2-1.7-0.6c-0.5-0.5-0.8-1.2-0.9-2c0-0.1,0.1-0.2,0.2-0.2H83
	c0.3,0,0.5-0.2,0.5-0.5v-0.5c0-0.8-0.1-1.6-0.4-2.4C83,18.8,82.7,18.2,82.2,17.7z"/>
<path class="st0" d="M79.9,20.6H76c-0.1,0-0.2-0.1-0.3-0.2c0-0.2,0.1-0.4,0.2-0.5c0.1-0.2,0.3-0.5,0.5-0.7s0.5-0.4,0.7-0.5
	c0.3-0.1,0.6-0.2,1-0.2c0.6,0,1.1,0.2,1.5,0.6c0.3,0.3,0.5,0.8,0.5,1.2C80.1,20.5,80,20.6,79.9,20.6z"/>
<path class="st0" d="M46.4,24.7h-5.8c-0.1,0-0.2-0.1-0.2-0.2v-12c0-0.3-0.2-0.5-0.5-0.5h-2.5c-0.3,0-0.5,0.2-0.5,0.5v15
	c0,0.3,0.2,0.5,0.5,0.5h9c0.3,0,0.5-0.2,0.5-0.5v-2.2C46.9,25,46.7,24.8,46.4,24.7z"/>
<path class="st0" d="M101.5,17.6c-0.4-0.5-0.9-0.9-1.5-1.1c-0.8-0.3-1.6-0.4-2.4-0.4c-0.9,0-1.8,0.2-2.6,0.4c-0.7,0.2-1.3,0.6-1.8,1
	c-0.2,0.2-0.2,0.5,0,0.7l1.1,1.1c0.2,0.2,0.5,0.2,0.7,0c0.3-0.2,0.5-0.4,0.9-0.6c0.5-0.2,1-0.4,1.5-0.4c0.6,0,1.1,0.2,1.5,0.5
	s0.6,0.9,0.6,1.9c0,0.1-0.1,0.2-0.2,0.2H98c-0.5,0-1.1,0.1-1.7,0.1c-0.5,0.1-1.1,0.2-1.6,0.3c-0.5,0.2-0.9,0.4-1.4,0.7
	c-0.4,0.3-0.7,0.7-0.9,1.1c-0.2,0.5-0.4,1-0.4,1.6c0,0.5,0.1,1,0.3,1.5c0.2,0.4,0.5,0.8,0.9,1.1c0.4,0.3,0.8,0.5,1.2,0.6
	c0.5,0.1,1,0.2,1.5,0.2c0.7,0,1.3-0.1,2-0.4c0.5-0.2,0.9-0.5,1.2-0.9h0.2l0.1,0.1v0.4c0,0.3,0.2,0.5,0.5,0.5h2.1
	c0.3,0,0.5-0.2,0.5-0.5v-5.1c0-1-0.1-2-0.2-3.1C102.2,18.7,101.9,18.1,101.5,17.6"/>
<path class="st0" d="M99.4,23.9c0,0.6-0.3,1.2-0.8,1.5c-0.2,0.2-0.5,0.3-0.8,0.4s-0.6,0.1-1,0.1s-0.8-0.1-1.1-0.3
	c-0.3-0.2-0.5-0.5-0.5-0.9c0-0.3,0.1-0.7,0.4-0.9c0.3-0.2,0.6-0.4,0.9-0.5c0.4-0.1,0.7-0.2,1.1-0.2h1.6c0.1,0,0.2,0.1,0.2,0.2
	C99.4,23.3,99.4,23.9,99.4,23.9z"/>
<path class="st0" d="M113.6,17.5c-0.3-0.5-0.7-0.9-1.2-1.1c-0.7-0.3-1.4-0.4-2.1-0.4c-0.4,0-0.8,0.1-1.1,0.2
	c-0.3,0.1-0.6,0.2-0.9,0.4c-0.3,0.2-0.5,0.3-0.7,0.6c-0.1,0.1-0.1,0.2-0.2,0.2l-0.1,0.1c-0.1,0-0.2-0.1-0.2-0.2v-0.4
	c0-0.3-0.2-0.5-0.5-0.5h-2.2c-0.3,0-0.5,0.2-0.5,0.5v10.7c0,0.3,0.2,0.5,0.5,0.5h2.4c0.3,0,0.5-0.2,0.5-0.5v-5.7c0-0.3,0-0.7,0.1-1
	c0-0.3,0.2-0.6,0.3-0.9c0.1-0.3,0.4-0.5,0.6-0.6c0.3-0.2,0.7-0.2,1.1-0.2c0.7-0.1,1.3,0.3,1.5,1c0.1,0.3,0.2,0.6,0.2,1v6.6
	c0,0.3,0.2,0.5,0.5,0.5h2.4c0.3,0,0.5-0.2,0.5-0.5v-6.3c0-0.7-0.1-1.4-0.2-2.1C114.1,18.7,113.9,18.1,113.6,17.5"/>
<path class="st0" d="M126.8,10.9h-2.4c-0.3,0-0.5,0.2-0.5,0.5v5.7c0,0.1-0.1,0.2-0.2,0.2s-0.1,0-0.1-0.1l-0.1-0.1
	c-0.3-0.3-0.7-0.5-1.1-0.7c-0.6-0.2-1.3-0.3-2-0.3s-1.5,0.2-2.1,0.5s-1.1,0.8-1.6,1.3c-0.4,0.6-0.8,1.2-1,1.9
	c-0.5,1.7-0.5,3.5,0,5.1c0.2,0.7,0.6,1.3,1.1,1.8s1.1,0.9,1.7,1.2c0.7,0.3,1.5,0.4,2.2,0.4c0.4,0,0.7-0.1,1.1-0.2
	c0.3-0.1,0.7-0.2,1-0.4c0.3-0.2,0.5-0.3,0.8-0.5l0.2-0.2l0.1-0.1l0.1-0.1c0.1,0,0.2,0.1,0.2,0.2v0.5c0,0.3,0.2,0.5,0.5,0.5h2.1
	c0.3,0,0.5-0.2,0.5-0.5v-16C127.3,11.2,127.1,10.9,126.8,10.9"/>
<path class="st0" d="M123.5,24.5c-1.1,1-2.9,1-4,0c-0.5-0.5-0.7-1.5-0.7-2.4c0-0.8,0.2-1.8,0.7-2.3c1.1-1,2.9-1,4,0
	c0.5,0.5,0.7,1.5,0.7,2.3S123.9,24,123.5,24.5z"/>
<path class="st0" d="M138.5,17.9c-0.6-0.5-1.2-0.9-1.9-1.2c-1.5-0.5-3.2-0.5-4.8,0c-0.7,0.3-1.4,0.7-1.9,1.2s-1,1.1-1.3,1.8
	c-0.6,1.7-0.6,3.7,0,5.4c0.3,0.7,0.7,1.3,1.3,1.8s1.2,0.9,1.9,1.2c1.5,0.5,3.2,0.5,4.8,0c0.7-0.3,1.4-0.7,1.9-1.2s1-1.1,1.3-1.8
	c0.6-1.7,0.6-3.7,0-5.4C139.5,19,139,18.4,138.5,17.9z"/>
<path class="st0" d="M136.2,24.7c-1.1,1-2.9,1-4,0c-0.5-0.5-0.7-1.5-0.7-2.3s0.2-1.8,0.7-2.3c1.1-1,2.9-1,4,0
	c0.5,0.5,0.7,1.5,0.7,2.3S136.6,24.2,136.2,24.7z"/>
<path class="st1" d="M31,15.5c-0.1-0.3-1.4-2.7-4-5.9c-0.1-0.1-0.1-0.2-0.1-0.3c-0.2-1.8-0.4-3.6-0.8-5.4c-0.1-0.4-0.4-0.6-0.8-0.7
	l-2.6-0.3h-0.1c-0.3,0-0.5,0.2-0.5,0.5v0.9c-1.6-1.5-3.4-2.8-5.3-4C16.4,0.2,16,0,15.5,0s-0.9,0.1-1.3,0.4C5.3,6,0.3,15,0.1,15.5
	c0,0.1-0.1,0.2-0.1,0.4c0,0.4,0.3,0.8,0.7,0.9l2.6,0.5c0.3,0.1,0.6,0.4,0.6,0.8c0,0.5,0.5,10.7,1.1,13.3C5.2,31.7,5.5,32,5.9,32
	c1.5,0,2.9-0.1,4.4-0.1h0.1c0.2,0,0.3-0.1,0.3-0.3c-0.1-0.9-0.2-2.9-0.3-5.1v-0.2c0-0.2-0.1-0.3-0.3-0.4c-0.8-0.5-1.3-1.3-1.4-2.2
	c-0.1-3.6-0.2-7.7,0-11c0-0.3,0.2-0.5,0.5-0.5s0.5,0.2,0.5,0.5c-0.1,2.2-0.1,4.7-0.1,7.2c0,0.3,0.3,0.6,0.6,0.6s0.6-0.3,0.6-0.6
	c0-2.5,0-5.1,0.1-7.3c0-0.3,0.2-0.5,0.5-0.5s0.5,0.2,0.5,0.5C12,14.9,12,17.5,12,20c0,0.3,0.3,0.6,0.6,0.6s0.6-0.3,0.6-0.6
	c0-2.5,0-5.1,0.1-7.2c0-0.3,0.3-0.5,0.5-0.5c0.3,0,0.5,0.2,0.5,0.5c-0.2,3.1-0.1,7.1,0,10.6v0.1c0,0.9-0.5,1.8-1.2,2.3
	c-0.1,0.1-0.2,0.2-0.2,0.4c0,0-0.1,0.5,0.2,3.1c0.1,1.1,0.2,1.9,0.2,2.3c0,0.1,0.1,0.2,0.3,0.2H19c0.1,0,0.3-0.1,0.3-0.2
	c0.3-3.1,0.4-4.9,0.4-4.9c0-0.2-0.1-0.3-0.3-0.3l-1.8-0.2c-0.2,0-0.4-0.2-0.5-0.4v-0.3c0.7-10.4,4.2-13.9,4.2-13.9
	c0.1-0.1,0.1-0.1,0.2-0.1c0.2-0.2,0.6-0.1,0.8,0.1l0.1,0.1v0.2c0.3,3.3,0.2,8.8,0,13.2c-0.2,3.7-0.3,6.6-0.3,6.6
	c0,0.1,0.1,0.2,0.2,0.2c1,0,1.9,0,2.9,0.1c0.4,0,0.8-0.3,0.9-0.7c0.6-2.7,1.1-12.9,1.1-13.3s0.3-0.7,0.6-0.8l2.6-0.5
	c0.5-0.1,0.8-0.6,0.6-1.1C31,15.6,31,15.5,31,15.5z"/>
<g>
	<g>
		<path class="st2" d="M37.2,11.1H47v2.4h-7v4.6H46v2.4h-5.9v6.8h-2.9V11.1z"/>
		<path class="st2" d="M48,24.2c0-2.6,2.2-4,7.2-4.5c0-1.3-0.6-2.4-2.2-2.4c-1.2,0-2.4,0.5-3.4,1.2l-1.1-1.9c1.3-0.8,3.1-1.6,5-1.6
			c3.1,0,4.6,1.9,4.6,5.3v7.3h-2.4l-0.2-1.4h-0.1c-1.1,0.9-2.4,1.7-3.8,1.7C49.5,27.8,48,26.3,48,24.2z M55.2,24.2v-2.8
			c-3.3,0.4-4.4,1.3-4.4,2.5c0,1.1,0.7,1.6,1.8,1.6C53.5,25.5,54.3,25,55.2,24.2z"/>
		<path class="st2" d="M60.6,9.8h2.8v11h0.1l4.5-5.6h3.1l-4.2,5l4.6,7.3h-3.1l-3.2-5.3l-1.9,2.2v3.1h-2.8V9.8z"/>
		<path class="st2" d="M71.8,21.3c0-4,2.8-6.4,5.7-6.4c3.3,0,5.1,2.4,5.1,5.8c0,0.5-0.1,1.1-0.1,1.4h-7.8c0.2,2.2,1.6,3.4,3.6,3.4
			c1,0,2-0.3,2.8-0.9l1,1.8c-1.2,0.8-2.6,1.3-4.2,1.3C74.5,27.8,71.8,25.4,71.8,21.3z M80,20.2c0-1.9-0.8-3-2.5-3
			c-1.4,0-2.7,1.1-2.9,3H80z"/>
		<path class="st2" d="M84.3,15.2h2.4l0.2,2.2h0.1c0.9-1.6,2.2-2.5,3.5-2.5c0.6,0,1,0.1,1.4,0.2l-0.5,2.5c-0.4-0.1-0.8-0.2-1.3-0.2
			c-1,0-2.2,0.7-2.9,2.5v7.5h-2.9V15.2z"/>
		<path class="st2" d="M92.9,24.2c0-2.6,2.2-4,7.2-4.5c0-1.3-0.6-2.4-2.2-2.4c-1.2,0-2.4,0.5-3.4,1.2l-1.1-1.9
			c1.3-0.8,3.1-1.6,5-1.6c3.1,0,4.6,1.9,4.6,5.3v7.3h-2.4l-0.2-1.4h-0.1c-1.1,0.9-2.4,1.7-3.8,1.7C94.4,27.8,92.9,26.3,92.9,24.2z
			 M100.2,24.2v-2.8c-3.3,0.4-4.4,1.3-4.4,2.5c0,1.1,0.7,1.6,1.8,1.6C98.5,25.5,99.3,25,100.2,24.2z"/>
		<path class="st2" d="M104.6,15.2h2.4l0.2,1.7h0.1c1.1-1.1,2.3-2,4-2c2.6,0,3.8,1.8,3.8,4.9v7.7h-2.9v-7.3c0-2-0.6-2.8-1.9-2.8
			c-1.1,0-1.8,0.5-2.8,1.5v8.6h-2.9V15.2z"/>
		<path class="st2" d="M116,21.3c0-4,2.5-6.4,5.2-6.4c1.4,0,2.3,0.5,3.2,1.4l-0.1-2V9.8h2.9v17.7h-2.4l-0.2-1.3h-0.1
			c-0.9,0.9-2.2,1.6-3.5,1.6C118,27.8,116,25.4,116,21.3z M124.3,24v-5.7c-0.8-0.8-1.7-1-2.5-1c-1.6,0-2.8,1.5-2.8,4
			c0,2.7,1,4.1,2.8,4.1C122.7,25.4,123.5,25,124.3,24z"/>
		<path class="st2" d="M128.2,21.3c0-4.1,2.8-6.4,5.8-6.4s5.8,2.4,5.8,6.4c0,4.1-2.8,6.4-5.8,6.4S128.2,25.4,128.2,21.3z
			 M136.9,21.3c0-2.5-1.1-4.1-2.9-4.1s-2.9,1.6-2.9,4.1c0,2.5,1.1,4.1,2.9,4.1S136.9,23.8,136.9,21.3z"/>
	</g>
</g>
</svg>
